<svg width="35" height="35" viewBox="0 0 35 35" fill="none" xmlns="http://www.w3.org/2000/svg">
<path fill-rule="evenodd" clip-rule="evenodd" d="M10.1631 3.60063C10.2647 3.49877 10.3854 3.41796 10.5183 3.36282C10.6512 3.30768 10.7936 3.2793 10.9375 3.2793C11.0814 3.2793 11.2238 3.30768 11.3567 3.36282C11.4896 3.41796 11.6103 3.49877 11.7119 3.60063L24.8369 16.7256C24.9387 16.8272 25.0195 16.9479 25.0747 17.0808C25.1298 17.2137 25.1582 17.3561 25.1582 17.5C25.1582 17.6439 25.1298 17.7863 25.0747 17.9192C25.0195 18.0521 24.9387 18.1728 24.8369 18.2744L11.7119 31.3994C11.5065 31.6048 11.2279 31.7201 10.9375 31.7201C10.6471 31.7201 10.3685 31.6048 10.1631 31.3994C9.95775 31.194 9.84237 30.9154 9.84237 30.625C9.84237 30.3346 9.95775 30.056 10.1631 29.8506L22.5159 17.5L10.1631 5.14938C10.0613 5.04778 9.98046 4.92708 9.92532 4.7942C9.87018 4.66132 9.8418 4.51887 9.8418 4.375C9.8418 4.23114 9.87018 4.08868 9.92532 3.9558C9.98046 3.82292 10.0613 3.70223 10.1631 3.60063Z" fill="black"/>
</svg>
